<svg width="85" height="40" viewBox="0 0 85 40" fill="none" xmlns="http://www.w3.org/2000/svg">
<path d="M44.2516 14.0192H33.9125V16.5031C33.9539 16.5031 33.9953 16.5237 34.0367 16.5651C34.0781 16.6065 34.1143 16.6272 34.1454 16.6272C34.0626 16.6272 34.016 16.6221 34.0056 16.6117C34.0056 16.56 34.7767 16.3944 36.3187 16.1149C36.888 16.0115 37.452 15.9597 38.0109 15.9597C40.3395 15.9597 41.835 16.6117 42.4974 17.9157C42.9424 18.7851 43.1649 20.5393 43.1649 23.1784V29.1552C42.9476 29.0724 42.1248 28.7361 40.6966 28.1462C40.6966 27.815 40.6293 27.6028 40.4947 27.5097C39.9462 27.8305 39.496 28.0737 39.1441 28.2393C38.0264 28.7671 36.7275 29.031 35.2476 29.031C33.2087 29.031 31.6356 28.3894 30.5282 27.1061C29.9901 26.4851 29.721 25.7917 29.721 25.0258C29.721 24.1668 30.1453 23.313 30.994 22.4643C32.6395 20.8188 34.6835 19.996 37.126 19.996C38.606 19.996 39.7962 20.3375 40.6966 21.0206V19.5924C40.2412 19.0128 39.7962 18.6247 39.3615 18.428C38.9372 18.2314 38.3524 18.1434 37.6073 18.1641C35.941 18.1952 34.4144 18.5005 33.0276 19.0801C32.4067 19.3388 31.8012 19.5717 31.2113 19.7786V18.6299C31.3458 18.516 31.5425 18.3453 31.8012 18.1176C31.8426 18.0658 31.8685 18.0348 31.8788 18.0244V14.0192H28.6964V12.1563H44.2516V14.0192ZM40.6966 23.846C40.6966 23.3906 40.1532 22.9818 39.0665 22.6196C38.1661 22.3194 37.4158 22.1694 36.8155 22.1694C34.6318 22.1694 32.8827 22.9559 31.5684 24.529C31.0405 25.1604 30.7766 25.6778 30.7766 26.0815C30.994 26.837 31.8478 27.2147 33.3381 27.2147C35.2631 27.2147 37.0225 26.7335 38.6163 25.771C40.0031 24.9327 40.6966 24.291 40.6966 23.846ZM60.7383 14.0192H44.0498V12.1563H60.7383V14.0192ZM57.4006 20.8343C57.4006 18.3504 56.2259 17.1085 53.8766 17.1085C52.1379 17.1085 50.6838 18.0192 49.5143 19.8407C48.4793 21.4553 47.9619 23.1733 47.9619 24.9948V29.5123L45.4159 28.1772V16.5031H48.0861V18.3504L49.4677 17.3103C50.6889 16.3892 51.9774 15.9287 53.3332 15.9287C55.1754 15.9287 56.702 16.6428 57.9129 18.071C59.0513 19.4164 59.6205 21.0258 59.6205 22.899C59.6205 25.2483 58.627 27.5045 56.6399 29.6675L53.6437 27.7891C54.5752 26.868 55.3669 26.0194 56.0189 25.2432C56.94 24.1461 57.4006 22.6765 57.4006 20.8343ZM78.3737 14.0192H76.34L76.309 29.1863L73.4836 27.9754V25.7555C71.807 27.9185 70.1614 29 68.5469 29C67.5223 29 66.4046 28.5705 65.1937 27.7115C64.1587 26.9767 63.2997 26.1177 62.6167 25.1345C61.8094 23.9753 61.411 22.8473 61.4213 21.7502C61.4317 20.7463 61.9854 19.582 63.0824 18.2573C64.314 16.767 65.7991 16.0218 67.5378 16.0218C68.6452 16.0218 69.7578 16.4927 70.8755 17.4345C71.2171 17.7139 72.0864 18.6143 73.4836 20.1357V14.0192H60.1949V12.1563H73.4836C73.4836 10.014 73.3025 8.33734 72.9402 7.12646C72.4021 5.32566 71.2015 3.18332 69.3386 0.699456C69.2972 0.678757 69.2765 0.595962 69.2765 0.45107C69.2765 0.326876 69.3076 0.244081 69.3697 0.202683H72.3348C75.005 3.15227 76.34 7.13681 76.34 12.1563H78.3737V14.0192ZM72.7384 21.0827C72.7384 20.2754 72.2986 19.582 71.4189 19.0024C70.6323 18.485 69.8147 18.2262 68.9661 18.2262C68.3451 18.2262 67.5689 18.516 66.6374 19.0956C64.6089 20.3582 63.5947 21.8485 63.5947 23.5665C63.5947 24.5083 63.8483 25.3259 64.3554 26.0194C64.9142 26.7956 65.6439 27.1837 66.5443 27.1837C67.4757 27.1837 68.4693 26.7593 69.5249 25.9107C70.2597 25.3208 70.9428 24.5963 71.5741 23.7373C72.3503 22.6817 72.7384 21.7968 72.7384 21.0827ZM83.388 10.5262C83.3466 10.5676 83.2276 10.5883 83.0309 10.5883C82.8654 10.5883 82.7205 10.5676 82.5963 10.5262L81.5872 8.46154C81.1732 7.80952 80.6092 7.36967 79.8951 7.14198C79.1913 6.90395 78.7566 6.64521 78.591 6.36577C78.4358 5.8897 78.1357 5.16006 77.6906 4.17687V3.81981H78.2961C79.093 4.0682 79.7398 4.30106 80.2366 4.5184C81.0542 4.88063 81.6027 5.29978 81.8822 5.77586C82.0374 6.03459 82.2754 6.69696 82.5963 7.76295C82.8964 8.76684 83.15 9.46543 83.357 9.85871C83.3777 10.045 83.388 10.2675 83.388 10.5262ZM84.3039 14.0192H77.9856V12.1563H84.3039V14.0192ZM82.5342 29.3571L79.9261 27.9133V15.9287H82.5342V29.3571Z" fill="white"/>
<path d="M28.9794 14.0192H12.2909V12.1563H28.9794V14.0192ZM25.6417 20.8343C25.6417 18.3504 24.467 17.1085 22.1177 17.1085C20.379 17.1085 18.9249 18.0192 17.7554 19.8407C16.7205 21.4553 16.203 23.1733 16.203 24.9948V29.5123L13.6571 28.1772V16.5031H16.3272V18.3504L17.7089 17.3103C18.9301 16.3892 20.2186 15.9287 21.5744 15.9287C23.4166 15.9287 24.9431 16.6428 26.154 18.071C27.2924 19.4164 27.8617 21.0258 27.8617 22.899C27.8617 25.2483 26.8681 27.5045 24.881 29.6675L21.8849 27.7891C22.8163 26.868 23.608 26.0194 24.2601 25.2432C25.1812 24.1461 25.6417 22.6765 25.6417 20.8343Z" fill="white"/>
<path d="M0.787448 14.0192H17.4759V12.1563H0.787448V14.0192ZM4.12514 20.8343C4.12514 18.3504 5.2998 17.1085 7.64913 17.1085C9.38783 17.1085 10.8419 18.0192 12.0114 19.8407C13.0464 21.4553 13.5638 23.1733 13.5638 24.9948V29.5123L16.1098 28.1772V16.5031H13.4396V18.3504L12.058 17.3103C10.8368 16.3892 9.54825 15.9287 8.19247 15.9287C6.35027 15.9287 4.82373 16.6428 3.61285 18.071C2.47441 19.4164 1.90519 21.0258 1.90519 22.899C1.90519 25.2483 2.89873 27.5045 4.88583 29.6675L7.88199 27.7891C6.95054 26.868 6.15881 26.0194 5.50679 25.2432C4.58569 24.1461 4.12514 22.6765 4.12514 20.8343Z" fill="white"/>
</svg>
